<svg xmlns="http://www.w3.org/2000/svg" width="823" height="358"><path d="M77.455 11.292L20.144 270.063h527.65c-17.001-1.483-30.424-7.452-38.421-18.331-1.484-2.012-2.71-4.18-3.784-6.448a222.344 222.344 0 0 1-1.971-5.063c-1.706-5.422-2.386-11.44-2.079-17.851.853-17.871 9.238-39.129 23.767-61.39 15.433-23.656 37.799-48.45 65.492-71.46 6.207-5.153 12.625-10.242 19.344-15.187 8.305-6.11 16.673-11.737 25.046-17 30.848-19.42 61.619-33.01 88.886-39.912-26.056 8.5-55.33 22.931-84.25 42.577-1.04.703-2.068 1.422-3.09 2.132-16.047 11.118-30.584 22.926-43.272 34.85-40.823 38.386-62.4 78.16-52.596 101.463a29.105 29.105 0 0 0 2.505 4.583c10.538 15.5 36.656 18.18 69.755 9.858 2.251-.563 4.502-1.2 6.821-1.865 10.573-3.052 21.797-7.175 33.359-12.256 2.78-1.228 5.589-2.49 8.42-3.837.29-.136.562-.273.852-.426 36.492-18.132 64.537-38.995 70.608-51.53 1.33-2.727 1.65-5.052.746-6.875-4.331-8.782-34.64-2.85-71.354 13.056a380.386 380.386 0 0 0-8.952 3.996 284.181 284.181 0 0 1 7.62-6.82c4.16-3.585 8.469-7.09 13.056-10.552a260.622 260.622 0 0 1 21.582-14.707c33.457-25.242 50.37-49.119 46.84-57.979-.664-1.67-2.08-2.818-4.262-3.517-6.975-2.219-19.704.43-35.171 6.768-12.755 5.232-27.405 12.99-42.258 22.648l-2.025 1.332-.373.213-7.14 4.743 4.102-7.514c6.088-11.144 16.004-22.771 28.35-33.572 9.055-7.897 19.4-15.338 30.535-21.849 4.212-2.465 8.417-4.756 12.63-6.82a181.42 181.42 0 0 1 12.842-5.65c12.237-4.839 25.68-10.95 35.866-11.75-.927 0-30.377 3.171-30.377 3.171H648.99h-425.3H77.456zm418.489.373c-1.671 25.506 3.274 62.863 14.494 104.34a578.56 578.56 0 0 0 6.555 22.488 560.997 560.997 0 0 0 4.583 13.855c-.92 1.354-1.848 2.7-2.718 4.05-14 21.456-22.183 41.732-24.246 59.364-5.918-19.815-10.373-41.519-12.896-64.533a392.48 392.48 0 0 1-1.652-19.557c-2.763-46.797 3.346-89.219 15.88-120.007zm-279.394 33.2c.32-.009.634 0 .959 0h63.041c5.389 0 9.556 1.01 12.523 3.037 2.95 2.04 4.056 4.677 3.357 7.887l-7.514 33.945h-22.221l7.3-33.04h-55.633l-20.09 90.805-7.247 32.88h55.58l.053-.214 11.137-50.305h-26.111l2.504-11.35h48.334l-13.856 62.774c-.187.893-.515 1.703-.959 2.505-1.142 2.08-3.135 3.862-5.915 5.328-3.854 2.03-8.466 3.038-13.855 3.038H184.95c-5.388 0-9.555-1.008-12.522-3.038-2.95-2.029-4.074-4.62-3.357-7.833l27.763-125.495c.716-3.21 2.95-5.848 6.82-7.887.137-.073.29-.09.427-.16 3.533-1.77 7.68-2.765 12.47-2.878zm98.798 0h79.347c5.32 0 9.502 1.01 12.47 3.037 2.984 2.04 4.126 4.677 3.41 7.887l-14.814 66.93c-.7 3.19-2.987 5.791-6.875 7.834-3.888 2.05-8.464 3.09-13.801 3.09h-57.66l-11.137 50.252-1.811 8.26h-21.742l1.652-7.46 30.96-139.83zm109.615 0h21.742l-24.62 111.213-5.382 24.3h52.01a310.29 310.29 0 0 0 1.865 11.777H392.35l6.182-27.923 26.43-119.368zm-90.485 11.83l-14.44 65.118h54.194l14.388-65.119h-54.142zM218.915 210.386c.213-.008.426 0 .64 0 2.524 0 4.728.443 6.501 1.279 1.893.886 3.246 2.203 3.997 3.943.733 1.688.925 3.604.533 5.702l-.16.799h-6.235l.053-.746c.162-1.466-.02-2.618-.586-3.41-.074-.1-.18-.231-.266-.32a3.476 3.476 0 0 0-.533-.426c-.873-.55-2.237-.853-3.997-.853-2.336 0-4.082.407-5.276 1.225-1.16.802-1.892 1.697-2.131 2.772-.239 1.09.153 1.664.426 1.971l.053.054c.346.294 1.546.985 5.276 1.865 3.376.818 5.612 1.554 6.874 2.185 1.91.972 3.244 2.231 3.944 3.783.699 1.535.852 3.332.426 5.276-.426 1.893-1.392 3.638-2.824 5.275-1.416 1.637-3.217 2.933-5.382 3.837a18.202 18.202 0 0 1-6.928 1.386c-3.07 0-5.534-.465-7.46-1.386-2.013-.955-3.464-2.462-4.317-4.423-.819-1.91-.993-4.078-.533-6.448l.16-.746h6.128l-.053.746c-.153 1.415-.002 2.558.373 3.41.358.82 1.04 1.497 2.132 2.026 1.16.562 2.609.852 4.263.852 1.483 0 2.839-.249 4.05-.692 1.193-.427 2.142-.99 2.824-1.706.665-.716 1.055-1.473 1.226-2.291.17-.733.13-1.354-.16-1.865-.324-.546-.966-1.03-1.972-1.44l-5.222-1.545c-2.916-.733-4.88-1.432-6.022-2.131-1.552-.921-2.67-2.102-3.25-3.517-.58-1.398-.642-2.948-.267-4.636.392-1.808 1.264-3.528 2.611-5.063 1.365-1.551 3.125-2.769 5.223-3.57a18.347 18.347 0 0 1 5.861-1.172zm55.954.106c.337-.026.654 0 1.012 0l3.837.427 1.279.106-1.865 4.743-.373.746-2.931-.267c-.865 0-1.501.134-1.918.427-.028.02-.081.084-.107.106-.056.05-.15.135-.213.213-.257.337-.57.938-.8 2.026 0 0-.11.46-.213.852h4.583l-1.172 5.276h-4.477c-.34 1.535-4.53 20.303-4.53 20.303h-6.18s4.017-18.035 4.529-20.303h-3.57l1.172-5.276h3.517c.17-.733.426-1.652.426-1.652.376-1.705.768-2.93 1.28-3.783a8.045 8.045 0 0 1 2.93-2.878c1.025-.596 2.322-.952 3.783-1.066zm14.76.267l-2.024 9.112h3.996l-1.172 5.275h-3.997c-.324 1.467-2.877 12.843-2.877 12.843s-.213 1.367-.213 1.759v.053c0 .003-.002.05 0 .053.001.003.051-.002.053 0l.64.053 2.93-.213-.32 4.743.054.852-4.21.48c-1.67 0-2.896-.273-3.783-.853-.938-.614-1.484-1.428-1.706-2.45-.034-.189-.106-.461-.106-.854 0-.767.145-2.065.64-4.316 0 0 2.24-10.035 2.717-12.15h-2.93l1.172-5.275h2.93c.273-1.228 1.226-5.436 1.226-5.436l4.956-2.611 2.025-1.066zm-196.369.213h23.98l-1.332 5.968H98.376c-.273 1.211-1.366 6.113-1.759 7.887h15.188l-1.333 5.968H95.285c-.324 1.484-3.25 14.655-3.25 14.655h-6.449l7.674-34.478zm32.133 8.42c.24-.03.504 0 .746 0 1.535 0 2.952.466 4.317 1.438l.852.587-3.304 5.435-.905-.64a3.895 3.895 0 0 0-2.132-.639c-.648 0-1.251.23-1.865.64a4.712 4.712 0 0 0-1.599 1.758c-.716 1.313-1.24 2.784-1.598 4.37l-2.878 13.109h-6.181l5.701-25.579h5.756s-.199.776-.267 1.066c.273-.205.56-.486.8-.64.825-.493 1.698-.8 2.557-.906zm18.332 0c.372-.029.738 0 1.119 0 3.479 0 6.11 1.219 7.833 3.623 1.074 1.552 1.652 3.47 1.652 5.755 0 1.262-.155 2.62-.48 4.103l-.479 1.866h-17.372c-.034.358-.054.741-.054 1.065 0 1.33.273 2.377.853 3.144.275.376.595.714.96.96.686.448 1.573.692 2.61.692 1.262 0 2.37-.347 3.41-1.012.99-.631 1.936-1.64 2.772-3.038h6.608l-.586 1.28c-1.262 2.557-3.023 4.552-5.223 5.968-2.2 1.415-4.828 2.184-7.727 2.184-3.768 0-6.574-1.219-8.313-3.623-1.722-2.353-2.093-5.606-1.172-9.699.92-4.16 2.758-7.486 5.435-9.805 2.4-2.08 5.123-3.235 8.154-3.464zm27.763 0c.372-.029.739 0 1.12 0 3.478 0 6.11 1.219 7.833 3.623 1.074 1.552 1.652 3.47 1.652 5.755 0 1.245-.156 2.584-.48 4.05l-.48 1.919h-17.372c-.015.238-.036.454-.053.692-.013.09.005.226 0 .32v.053c0 .256.036.508.053.746.086.972.34 1.785.8 2.398.087.12.17.267.266.373.781.836 1.886 1.28 3.304 1.28a6.114 6.114 0 0 0 3.41-1.013c.99-.631 1.936-1.64 2.771-3.038h6.662l-.64 1.28c-1.262 2.557-3.022 4.552-5.222 5.968-2.2 1.415-4.828 2.184-7.727 2.184-3.769 0-6.574-1.219-8.313-3.623-1.126-1.535-1.652-3.49-1.652-5.809 0-.358.018-.744.053-1.119a19.31 19.31 0 0 1 .426-2.77c.921-4.144 2.705-7.487 5.383-9.806 2.4-2.08 5.176-3.235 8.206-3.464zm75.617 0c.381-.03.731 0 1.12 0 3.546 0 6.272 1.2 8.046 3.57 1.756 2.37 2.183 5.567 1.279 9.592-.7 3.137-1.71 5.672-3.09 7.514-1.382 1.841-3.143 3.346-5.223 4.37-2.064 1.022-4.249 1.544-6.448 1.544-3.615 0-6.308-1.236-8.047-3.623-1.125-1.518-1.705-3.472-1.705-5.809 0-1.261.138-2.602.48-4.103 1.023-4.57 3.112-8.05 6.181-10.284 2.253-1.627 4.741-2.567 7.407-2.772zm93.629 0c.45-.028.866 0 1.332 0 2.149 0 3.837.217 5.116.745 1.364.546 2.332 1.318 2.877 2.239.529.87.8 1.937.8 3.25l-.64 3.89-1.172 5.276c-1.006 4.502-1.228 6.19-1.28 6.82-.05.854.029 1.685.268 2.452l.426 1.386h-6.288l-.267-.8c-.102-.375-.072-.852-.106-1.279-1.194.734-2.39 1.384-3.464 1.76-1.586.545-3.232.851-4.903.851-2.899 0-5.045-.754-6.341-2.237-.99-1.092-1.44-2.426-1.44-3.944 0-.58.078-1.181.214-1.812.29-1.296.817-2.496 1.652-3.57.819-1.057 1.786-1.927 2.878-2.558 1.057-.631 2.236-1.079 3.463-1.386l3.784-.639c2.916-.341 5.093-.765 6.661-1.226.034-.17.107-.373.107-.373.247-1.097.216-1.922-.053-2.344-.02-.027-.085-.084-.107-.107-.058-.061-.146-.158-.213-.213-.641-.508-1.735-.746-3.197-.746-1.655 0-2.878.27-3.73.8-.836.528-1.61 1.495-2.292 2.877h-6.448l.586-1.28c.767-1.773 1.682-3.243 2.824-4.369 1.143-1.125 2.686-1.997 4.477-2.611a17.763 17.763 0 0 1 4.476-.853zm27.017 0c.24-.03.504 0 .746 0 1.552 0 3.006.466 4.37 1.438l.8.587-3.304 5.435-.906-.64c-.666-.426-1.345-.639-2.079-.639-.648 0-1.287.23-1.918.64-.648.426-1.12.99-1.546 1.758a17.503 17.503 0 0 0-1.598 4.37l-2.931 13.109h-6.181l5.701-25.579h5.755s-.144.776-.213 1.066c.273-.205.544-.486.8-.64.812-.493 1.645-.8 2.504-.906zm18.278 0c.372-.029.739 0 1.12 0 3.478 0 6.128 1.219 7.833 3.623 1.091 1.552 1.652 3.47 1.652 5.755 0 1.262-.21 2.62-.533 4.103l-.426 1.866h-17.373c-.034.358-.106.741-.106 1.065 0 1.33.29 2.377.853 3.144.087.12.223.267.32.374a5.9 5.9 0 0 0 .213.213c.762.693 1.8 1.066 3.09 1.066 1.262 0 2.37-.348 3.41-1.013.99-.63 1.92-1.64 2.772-3.038h6.66l-.639 1.28c-1.261 2.557-3.04 4.552-5.222 5.968-2.217 1.415-4.811 2.185-7.727 2.185-3.768 0-6.52-1.22-8.26-3.624-1.722-2.353-2.129-5.606-1.225-9.699.92-4.16 2.705-7.486 5.382-9.805 2.415-2.08 5.179-3.235 8.206-3.464zm-93.308.48h6.34s.783 15.178.8 15.4c.256-.544.454-1.001.48-1.066l6.98-14.335h5.81s.532 14.996.532 15.08c.17-.306 7.94-15.08 7.94-15.08h6.288l-13.855 25.579h-5.702s-.552-13.87-.586-14.655a55509.51 55509.51 0 0 0-7.14 14.655h-5.862l-2.025-25.579zm-148.89 4.848c-1.469.062-2.803.592-4.05 1.599-.989.785-1.656 1.861-2.184 3.037h10.497c.019-.187.054-.415.054-.586 0-.972-.173-1.726-.48-2.238-.75-1.228-1.863-1.812-3.517-1.812-.099 0-.222-.005-.32 0zm27.764 0c-1.469.062-2.803.592-4.05 1.599-.99.785-1.64 1.861-2.185 3.037h10.498c.016-.187.053-.415.053-.586 0-.972-.155-1.726-.48-2.238a4.276 4.276 0 0 0-.532-.693c-.712-.735-1.692-1.119-2.985-1.119-.099 0-.221-.005-.32 0zm214.754 0c-1.51.047-2.921.558-4.21 1.599-.972.785-1.639 1.861-2.185 3.037H390.4c.018-.187.053-.415.053-.586 0-.972-.155-1.726-.48-2.238-.733-1.21-1.862-1.795-3.517-1.812h-.106zm-139.617.107c-1.41.167-2.72.81-3.943 1.918-1.467 1.33-2.53 3.42-3.144 6.182-.256 1.16-.373 2.15-.373 3.037 0 1.21.232 2.162.692 2.878.123.184.286.378.427.533.758.805 1.817 1.225 3.144 1.225 1.722 0 3.24-.641 4.69-1.971 1.466-1.347 2.512-3.458 3.143-6.288.58-2.592.5-4.528-.32-5.756-.784-1.193-1.93-1.758-3.517-1.758-.269 0-.538-.031-.799 0zm96.293 9.325c-1.45.393-3.073.723-5.222 1.013-1.603.239-2.746.49-3.41.746-.58.239-1.047.57-1.44 1.013-.374.426-.626.873-.745 1.385a3.746 3.746 0 0 0-.053.586v.053c.001.04-.006.121 0 .16.01.077.031.195.053.266.008.024.044.084.053.107.018.046.03.116.053.16.023.043.078.119.107.16.044.061.105.155.16.213.426.477 1.276.693 2.504.693 1.347 0 2.643-.256 3.837-.853a7.463 7.463 0 0 0 2.824-2.451c.512-.717.92-1.818 1.28-3.25zm-286.84-44.477L89.871 42.013h19.817L79.852 172.955h76.94l-3.85 16.72H56.185" fill="#008033"/><path d="M500.001 243.249a258.5 258.5 0 0 0 2.106 5.294c1.11 2.36 2.394 4.62 3.937 6.73 8.335 11.331 22.295 17.535 40.02 19.08h19.065c6.028-.47 12.345-1.347 18.892-2.628 11.292-2.208 23.262-5.6 35.694-10.132 9.417-3.434 19.094-7.496 28.915-12.218 21.387-10.253 43.48-23.476 65.156-39.433a432.573 432.573 0 0 0 20.566-16.118 409.426 409.426 0 0 0 17.334-15.26c15.417-14.856 27.055-29.945 33.646-43.195 6.865-13.797 8.235-25.593 2.61-33.025-3.447-4.562-9.215-7.006-16.642-7.581 33.458-25.105 52.956-55.56 45.961-74.76-2.22-6.128-7.11-10.7-14.118-13.228-3.115-1.12-6.62-1.83-10.442-2.153h-10.297c-14.378 1.037-35.287 6.185-53.025 14.879" fill="none" stroke="#008033" stroke-width="8.5265776"/><g fill="#008033"><path d="M.06 357.64h12.721l5.713-23.873H39.16l2.66-10.231H21.07l3.444-15.347h22.083l2.66-11.937H14.384L.06 357.64zM57.117 357.64l3.82-16.029c2.012-8.68 6.258-16.37 14.29-16.37.716 0 1.415.358 1.943.443l3.104-12.294c-.716 0-1.5-.086-2.387-.086-5.918 0-10.88 4.161-14.188 10.13h-.341c.495-2.917.92-5.68 1.245-8.424H53.638c-.63 3.546-1.603 10.487-3.086 16.745L44.31 357.64h12.806zM113.696 346.13c-3.53 1.722-7.554 1.279-12.243 1.279-3.7 0-6.565-.648-8.134-1.91-.819-1.381-1.16-3.53-1.092-4.911 17.274.46 28.17-3.53 28.716-14.443.41-8.237-5.61-12.84-14.358-12.84-15.62 0-25.85 13.777-26.516 27.044-.58 11.579 5.423 17.291 17.803 17.291 4.757 0 11.067-.546 16.233-2.097l-.409-9.413zm-4.672-19.985c-.205 4.058-5.218 4.297-15.091 4.212 1.074-3.564 4.689-6.821 10.606-6.821 2.916 0 4.587 1.108 4.485 2.609zM158.902 346.13c-3.53 1.722-7.555 1.279-12.227 1.279-3.717 0-6.565-.648-8.134-1.91-.818-1.381-1.176-3.53-1.108-4.911 17.29.46 28.17-3.53 28.733-14.443.41-8.237-5.61-12.84-14.358-12.84-15.637 0-25.868 13.777-26.533 27.044-.563 11.579 5.44 17.291 17.802 17.291 4.775 0 11.084-.546 16.25-2.097l-.425-9.413zm-4.656-19.985c-.204 4.058-5.218 4.297-15.108 4.212 1.091-3.564 4.69-6.821 10.607-6.821 2.916 0 4.604 1.108 4.501 2.609zM224.723 357.64c.103-5.405 1.398-13.898 2.746-19.474l5.473-23.156c-3.478-1.177-8.9-1.706-14.119-1.706-21.179 0-31.683 15.688-32.416 30.387-.46 9.226 4.536 13.95 12.312 13.95 5.03 0 10.708-2.44 15.125-9.772h.187c-.34 3.53-.75 6.957-.972 9.771h11.664zm-8.748-24.35c-2.49 10.845-7.57 14.119-11.356 14.119-3.53 0-5.065-2.507-4.86-6.156.409-8.236 6.923-17.717 15.142-17.717 1.33 0 2.37-.24 3.342-.478l-2.268 10.231zM233.062 355.628c2.455 1.91 7.605 1.927 12.976 2.012 11.477.085 20.14-4.928 20.65-14.136.29-6.139-4.467-9.771-9.122-12.21-3.36-1.62-5.048-3.171-4.962-4.979.119-2.438 2.404-2.78 5.763-2.78 3.786 0 6.821.461 8.56.802l3.445-9.242c-1.961-1.177-5.883-1.79-10.913-1.79-11.136 0-19.286 5.882-19.747 14.818-.273 5.525 3.7 9.242 8.51 11.766 3.887 1.995 5.217 3.53 5.115 5.695-.12 2.183-2.063 1.825-5.593 1.825-4.144 0-8.731-.546-11.152-.921l-3.53 9.14zM301.1 357.64l10.317-42.63H298.78l-10.385 42.63H301.1zm5.917-47.746c4.331 0 8.185-3.581 8.424-9.72.205-4.16-2.49-5.627-6.463-5.627-4.143 0-7.93 2.694-8.15 6.718-.205 4.059 2.489 8.629 6.19 8.629zM325.485 357.64l4.502-19.2c2.336-9.772 7.366-13.2 11.51-13.2 3.274 0 4.229 1.4 4.075 3.428a30.477 30.477 0 0 1-.682 4.894l-5.73 24.078h12.722l6.036-25.254c.46-2.183.972-5.44 1.074-7.418.376-7.69-3.461-10.487-10.52-10.487-5.662 0-11.17 2.626-15.518 8.321h-.17l1.159-7.792h-11.22c-.734 3.649-1.672 8.065-3.002 13.215l-6.957 29.415h12.72zM380.222 357.64h12.721l5.73-23.873h20.65l2.66-10.231h-20.752l3.444-15.347h22.083l2.66-11.937h-34.872l-14.324 61.388zM437.28 357.64l3.819-16.029c2.012-8.68 6.258-16.37 14.29-16.37.716 0 1.415.358 1.944.443l3.103-12.294c-.716 0-1.5-.086-2.387-.086-5.917 0-10.88 4.161-14.188 10.13h-.34c.494-2.917.92-5.68 1.244-8.424H433.8c-.613 3.546-1.602 10.487-3.086 16.745l-6.241 25.885h12.806zM493.858 346.13c-3.53 1.722-7.554 1.279-12.243 1.279-3.7 0-6.565-.648-8.134-1.91-.819-1.381-1.16-3.53-1.091-4.911 17.274.46 28.17-3.53 28.716-14.443.409-8.237-5.61-12.84-14.358-12.84-15.62 0-25.852 13.777-26.517 27.044-.58 11.579 5.44 17.291 17.803 17.291 4.757 0 11.084-.546 16.234-2.097l-.41-9.413zm-4.672-19.985c-.205 4.058-5.218 4.297-15.091 4.212 1.074-3.564 4.69-6.821 10.606-6.821 2.916 0 4.587 1.108 4.485 2.609zM539.064 346.13c-3.53 1.722-7.554 1.279-12.227 1.279-3.717 0-6.565-.648-8.134-1.91-.818-1.381-1.176-3.53-1.108-4.911 17.291.46 28.17-3.53 28.733-14.443.41-8.237-5.61-12.84-14.358-12.84-15.637 0-25.868 13.777-26.533 27.044-.563 11.579 5.44 17.291 17.802 17.291 4.775 0 11.084-.546 16.251-2.097l-.426-9.413zm-4.655-19.985c-.205 4.058-5.218 4.297-15.109 4.212 1.092-3.564 4.69-6.821 10.607-6.821 2.916 0 4.604 1.108 4.502 2.609zM589.607 294.547l-4.792 19.371c-1.74-.716-4.007-.614-5.78-.614-16.337 0-27.898 13.983-28.666 29.125-.511 10.675 5.184 15.211 12.517 15.211 5.132 0 10.538-2.268 14.63-8.134h.171l-.972 8.134h11.562c.528-5.116 1.637-11.203 2.881-16.762l11.067-46.331h-12.618zm-9.959 41.641c-1.995 8.407-6.701 11.22-10.419 11.22-3.7 0-5.763-2.574-5.508-7.161.427-8.492 6.258-16.711 13.847-16.711 2.131 0 3.956.324 4.962.801l-2.882 11.851zM618.612 357.64c14.836 0 26.278-11.237 27.08-26.533.494-10.13-5.815-17.803-17.462-17.803-15.381 0-26.414 12.448-27.181 27.488-.529 10.948 6.53 16.848 17.563 16.848zm1.996-10.231c-4.332 0-6.719-2.763-6.463-6.89.34-6.871 4.587-16.983 11.902-16.983 5.048 0 6.6 3.87 6.395 7.673-.375 7.503-4.945 16.2-11.834 16.2zM661.499 357.64l4.604-19.474c1.927-8.68 6.735-14.63 11.05-14.63 3.103 0 3.956 2.268 3.802 5.235-.085 1.534-.426 3.257-.784 4.962l-5.696 23.907h12.278l4.604-19.559c2.115-8.952 6.65-14.545 10.88-14.545 2.915 0 4.126 2.08 3.99 5.047-.086 1.722-.444 3.615-.887 5.337l-5.525 23.72h12.363l5.951-25.254c.46-2.268.99-5.798 1.074-7.606.376-7.503-3.29-11.476-9.907-11.476-5.661 0-11.17 2.558-15.347 7.947-.153-3.888-2.933-7.947-9.822-7.947-5.576 0-10.896 2.524-15.16 8.237h-.17l1.143-6.531h-10.948c-.716 3.649-1.586 8.065-2.916 13.215l-6.855 29.415H661.5z"/></g></svg>